# MagicaVoxel @ Ephtracy

# group
o 

# material
mtllib lamp2.mtl
usemtl palette

# normals
vn -1 0 0
vn 1 0 0
vn 0 0 1
vn 0 0 -1
vn 0 -1 0
vn 0 1 0

# texcoords
vt 0.00585938 0.5
vt 0.00976563 0.5

# verts
v -11.9 0.4 2.2
v -11.9 0.4 1.2
v -11.9 0.5 2.2
v -11.9 0.5 1.2
v -11.6 5.4 1.9
v -11.6 5.4 1.5
v -11.6 5.5 1.9
v -11.6 5.5 1.5
v -11.6 6.8 1.9
v -11.6 6.8 1.5
v -11.5 0.5 1.8
v -11.5 0.5 1.6
v -11.5 5.4 1.8
v -11.5 5.4 1.6
v -11.3 0.5 1.8
v -11.3 0.5 1.6
v -11.3 5.4 1.8
v -11.3 5.4 1.6
v -11.2 5.4 1.9
v -11.2 5.4 1.5
v -11.2 5.5 1.9
v -11.2 5.5 1.5
v -11.2 6.8 1.9
v -11.2 6.8 1.5
v -10.9 0.4 2.2
v -10.9 0.4 1.2
v -10.9 0.5 2.2
v -10.9 0.5 1.2
v -11.9 0.4 2.2
v -11.9 0.5 2.2
v -10.9 0.4 2.2
v -10.9 0.5 2.2
v -11.6 5.4 1.9
v -11.6 5.5 1.9
v -11.6 6.8 1.9
v -11.2 5.4 1.9
v -11.2 5.5 1.9
v -11.2 6.8 1.9
v -11.5 0.5 1.8
v -11.5 5.4 1.8
v -11.3 0.5 1.8
v -11.3 5.4 1.8
v -11.5 0.5 1.6
v -11.5 5.4 1.6
v -11.3 0.5 1.6
v -11.3 5.4 1.6
v -11.6 5.4 1.5
v -11.6 5.5 1.5
v -11.6 6.8 1.5
v -11.2 5.4 1.5
v -11.2 5.5 1.5
v -11.2 6.8 1.5
v -11.9 0.4 1.2
v -11.9 0.5 1.2
v -10.9 0.4 1.2
v -10.9 0.5 1.2
v -11.9 0.4 2.2
v -10.9 0.4 2.2
v -11.9 0.4 1.2
v -10.9 0.4 1.2
v -11.6 5.4 1.9
v -11.2 5.4 1.9
v -11.5 5.4 1.8
v -11.3 5.4 1.8
v -11.5 5.4 1.6
v -11.3 5.4 1.6
v -11.6 5.4 1.5
v -11.2 5.4 1.5
v -11.9 0.5 2.2
v -10.9 0.5 2.2
v -11.5 0.5 1.8
v -11.3 0.5 1.8
v -11.5 0.5 1.6
v -11.3 0.5 1.6
v -11.9 0.5 1.2
v -10.9 0.5 1.2
v -11.6 6.8 1.9
v -11.2 6.8 1.9
v -11.6 6.8 1.5
v -11.2 6.8 1.5

# faces
f 3/1/1 2/1/1 1/1/1
f 4/1/1 2/1/1 3/1/1
f 7/1/1 6/1/1 5/1/1
f 8/1/1 6/1/1 7/1/1
f 9/2/1 8/2/1 7/2/1
f 10/2/1 8/2/1 9/2/1
f 13/1/1 12/1/1 11/1/1
f 14/1/1 12/1/1 13/1/1
f 15/1/2 16/1/2 17/1/2
f 17/1/2 16/1/2 18/1/2
f 19/1/2 20/1/2 21/1/2
f 21/1/2 20/1/2 22/1/2
f 21/2/2 22/2/2 23/2/2
f 23/2/2 22/2/2 24/2/2
f 25/1/2 26/1/2 27/1/2
f 27/1/2 26/1/2 28/1/2
f 31/1/3 30/1/3 29/1/3
f 32/1/3 30/1/3 31/1/3
f 36/1/3 34/1/3 33/1/3
f 37/2/3 35/2/3 34/2/3
f 37/1/3 34/1/3 36/1/3
f 38/2/3 35/2/3 37/2/3
f 41/1/3 40/1/3 39/1/3
f 42/1/3 40/1/3 41/1/3
f 43/1/4 44/1/4 45/1/4
f 45/1/4 44/1/4 46/1/4
f 47/1/4 48/1/4 50/1/4
f 48/2/4 49/2/4 51/2/4
f 50/1/4 48/1/4 51/1/4
f 51/2/4 49/2/4 52/2/4
f 53/1/4 54/1/4 55/1/4
f 55/1/4 54/1/4 56/1/4
f 59/1/5 58/1/5 57/1/5
f 60/1/5 58/1/5 59/1/5
f 63/1/5 62/1/5 61/1/5
f 64/1/5 62/1/5 63/1/5
f 65/1/5 63/1/5 61/1/5
f 66/1/5 62/1/5 64/1/5
f 67/1/5 65/1/5 61/1/5
f 67/1/5 66/1/5 65/1/5
f 68/1/5 62/1/5 66/1/5
f 68/1/5 66/1/5 67/1/5
f 69/1/6 70/1/6 71/1/6
f 71/1/6 70/1/6 72/1/6
f 69/1/6 71/1/6 73/1/6
f 72/1/6 70/1/6 74/1/6
f 69/1/6 73/1/6 75/1/6
f 73/1/6 74/1/6 75/1/6
f 74/1/6 70/1/6 76/1/6
f 75/1/6 74/1/6 76/1/6
f 77/2/6 78/2/6 79/2/6
f 79/2/6 78/2/6 80/2/6
