# MagicaVoxel @ Ephtracy

# group
o 

# material
mtllib door.mtl
usemtl palette

# normals
vn -1 0 0
vn 1 0 0
vn 0 0 1
vn 0 0 -1
vn 0 -1 0
vn 0 1 0

# texcoords
vt 0.00195313 0.5
vt 0.00585938 0.5

# verts
v -15 0.4 2.1
v -15 0.4 1.8
v -15 4.4 2.1
v -15 4.4 1.8
v -13.7 1.1 2
v -13.7 1.1 1.9
v -13.7 3.5 2
v -13.7 3.5 1.9
v -13.5 1.9 2.1
v -13.5 1.9 2
v -13.5 3.2 2.1
v -13.5 3.2 2
v -13.2 0.4 2.1
v -13.2 0.4 2
v -13.2 0.6 1.9
v -13.2 0.6 1.8
v -13.2 4.2 2.1
v -13.2 4.2 2
v -13.2 4.2 1.9
v -13.2 4.2 1.8
v -14.8 0.4 2.1
v -14.8 0.4 2
v -14.8 0.6 1.9
v -14.8 0.6 1.8
v -14.8 4.2 2.1
v -14.8 4.2 2
v -14.8 4.2 1.9
v -14.8 4.2 1.8
v -14 1.1 2
v -14 1.1 1.9
v -14 3.5 2
v -14 3.5 1.9
v -13.4 1.9 2.1
v -13.4 1.9 2
v -13.4 3.2 2.1
v -13.4 3.2 2
v -13 0.4 2.1
v -13 0.4 1.8
v -13 4.4 2.1
v -13 4.4 1.8
v -15 0.4 2.1
v -15 4.4 2.1
v -14.8 0.4 2.1
v -14.8 4.2 2.1
v -13.5 1.9 2.1
v -13.5 3.2 2.1
v -13.4 1.9 2.1
v -13.4 3.2 2.1
v -13.2 0.4 2.1
v -13.2 4.2 2.1
v -13 0.4 2.1
v -13 4.4 2.1
v -14.8 0.4 2
v -14.8 4.2 2
v -14.2 0.4 2
v -14.2 4.2 2
v -14 1.1 2
v -14 3.5 2
v -13.7 1.1 2
v -13.7 3.5 2
v -13.5 1.9 2
v -13.5 3.2 2
v -13.4 1.9 2
v -13.4 3.2 2
v -13.2 0.4 2
v -13.2 4.2 2
v -14.8 0.6 1.9
v -14.8 4.2 1.9
v -14.2 0.6 1.9
v -14.2 4.2 1.9
v -14 1.1 1.9
v -14 3.5 1.9
v -13.7 1.1 1.9
v -13.7 3.5 1.9
v -13.2 0.6 1.9
v -13.2 4.2 1.9
v -15 0.4 1.8
v -15 4.4 1.8
v -14.8 0.6 1.8
v -14.8 4.2 1.8
v -13.2 0.6 1.8
v -13.2 4.2 1.8
v -13 0.4 1.8
v -13 4.4 1.8
v -15 0.4 2.1
v -14.8 0.4 2.1
v -13.2 0.4 2.1
v -13 0.4 2.1
v -14.8 0.4 2
v -14.2 0.4 2
v -13.2 0.4 2
v -14.2 0.4 1.9
v -13.2 0.4 1.9
v -15 0.4 1.8
v -13 0.4 1.8
v -13.5 1.9 2.1
v -13.4 1.9 2.1
v -13.5 1.9 2
v -13.4 1.9 2
v -14 3.5 2
v -13.7 3.5 2
v -14 3.5 1.9
v -13.7 3.5 1.9
v -14.8 4.2 2.1
v -13.2 4.2 2.1
v -14.8 4.2 2
v -14.2 4.2 2
v -13.2 4.2 2
v -14.8 4.2 1.9
v -14.2 4.2 1.9
v -13.2 4.2 1.9
v -14.8 4.2 1.8
v -13.2 4.2 1.8
v -14.8 0.6 1.9
v -14.2 0.6 1.9
v -13.2 0.6 1.9
v -14.8 0.6 1.8
v -13.2 0.6 1.8
v -14 1.1 2
v -13.7 1.1 2
v -14 1.1 1.9
v -13.7 1.1 1.9
v -13.5 3.2 2.1
v -13.4 3.2 2.1
v -13.5 3.2 2
v -13.4 3.2 2
v -15 4.4 2.1
v -13 4.4 2.1
v -15 4.4 1.8
v -13 4.4 1.8

# faces
f 3/2/1 2/2/1 1/2/1
f 4/2/1 2/2/1 3/2/1
f 7/1/1 6/1/1 5/1/1
f 8/1/1 6/1/1 7/1/1
f 11/2/1 10/2/1 9/2/1
f 12/2/1 10/2/1 11/2/1
f 17/2/1 14/2/1 13/2/1
f 18/2/1 14/2/1 17/2/1
f 19/2/1 16/2/1 15/2/1
f 20/2/1 16/2/1 19/2/1
f 21/2/2 22/2/2 25/2/2
f 25/2/2 22/2/2 26/2/2
f 23/2/2 24/2/2 27/2/2
f 27/2/2 24/2/2 28/2/2
f 29/1/2 30/1/2 31/1/2
f 31/1/2 30/1/2 32/1/2
f 33/2/2 34/2/2 35/2/2
f 35/2/2 34/2/2 36/2/2
f 37/2/2 38/2/2 39/2/2
f 39/2/2 38/2/2 40/2/2
f 43/2/3 42/2/3 41/2/3
f 44/2/3 42/2/3 43/2/3
f 47/2/3 46/2/3 45/2/3
f 48/2/3 46/2/3 47/2/3
f 50/2/3 42/2/3 44/2/3
f 51/2/3 50/2/3 49/2/3
f 52/2/3 42/2/3 50/2/3
f 52/2/3 50/2/3 51/2/3
f 55/2/3 54/2/3 53/2/3
f 56/2/3 54/2/3 55/2/3
f 57/1/3 56/1/3 55/1/3
f 58/1/3 56/1/3 57/1/3
f 59/1/3 57/1/3 55/1/3
f 60/1/3 56/1/3 58/1/3
f 61/1/3 60/1/3 59/1/3
f 62/1/3 60/1/3 61/1/3
f 63/1/3 61/1/3 59/1/3
f 64/1/3 60/1/3 62/1/3
f 65/1/3 59/1/3 55/1/3
f 65/1/3 64/1/3 63/1/3
f 65/1/3 63/1/3 59/1/3
f 66/1/3 60/1/3 64/1/3
f 66/1/3 64/1/3 65/1/3
f 66/1/3 56/1/3 60/1/3
f 67/2/4 68/2/4 69/2/4
f 69/2/4 68/2/4 70/2/4
f 69/1/4 70/1/4 71/1/4
f 71/1/4 70/1/4 72/1/4
f 69/1/4 71/1/4 73/1/4
f 72/1/4 70/1/4 74/1/4
f 69/1/4 73/1/4 75/1/4
f 73/1/4 74/1/4 75/1/4
f 74/1/4 70/1/4 76/1/4
f 75/1/4 74/1/4 76/1/4
f 77/2/4 78/2/4 79/2/4
f 79/2/4 78/2/4 80/2/4
f 77/2/4 79/2/4 81/2/4
f 80/2/4 78/2/4 82/2/4
f 77/2/4 81/2/4 83/2/4
f 81/2/4 82/2/4 83/2/4
f 82/2/4 78/2/4 84/2/4
f 83/2/4 82/2/4 84/2/4
f 89/2/5 86/2/5 85/2/5
f 91/2/5 88/2/5 87/2/5
f 92/2/5 90/2/5 89/2/5
f 92/1/5 91/1/5 90/1/5
f 93/2/5 88/2/5 91/2/5
f 93/1/5 91/1/5 92/1/5
f 94/2/5 92/2/5 89/2/5
f 94/2/5 89/2/5 85/2/5
f 94/2/5 93/2/5 92/2/5
f 95/2/5 88/2/5 93/2/5
f 95/2/5 93/2/5 94/2/5
f 98/2/5 97/2/5 96/2/5
f 99/2/5 97/2/5 98/2/5
f 102/1/5 101/1/5 100/1/5
f 103/1/5 101/1/5 102/1/5
f 106/2/5 105/2/5 104/2/5
f 107/2/5 105/2/5 106/2/5
f 108/2/5 105/2/5 107/2/5
f 112/2/5 110/2/5 109/2/5
f 112/2/5 111/2/5 110/2/5
f 113/2/5 111/2/5 112/2/5
f 114/2/6 115/2/6 117/2/6
f 115/2/6 116/2/6 117/2/6
f 117/2/6 116/2/6 118/2/6
f 119/1/6 120/1/6 121/1/6
f 121/1/6 120/1/6 122/1/6
f 123/2/6 124/2/6 125/2/6
f 125/2/6 124/2/6 126/2/6
f 127/2/6 128/2/6 129/2/6
f 129/2/6 128/2/6 130/2/6
