# MagicaVoxel @ Ephtracy

# group
o 

# material
mtllib doorwall.mtl
usemtl palette

# normals
vn -1 0 0
vn 1 0 0
vn 0 0 1
vn 0 0 -1
vn 0 -1 0
vn 0 1 0

# texcoords
vt 0.00585938 0.5

# verts
v -20 0 -15.1
v -20 0 -15.4
v -20 12.2 -15.1
v -20 12.2 -15.4
v -13.1 0 -15.3
v -13.1 0 -15.4
v -13.1 0.3 -15.3
v -13.1 0.3 -15.4
v -13 0 -15.2
v -13 0 -15.3
v -13 0.3 -15.2
v -13 0.3 -15.3
v -13 0.3 -15.4
v -13 4 -15.3
v -13 4 -15.4
v -7.7 0 -15.1
v -7.7 0 -15.2
v -7.7 0.3 -15.2
v -7.7 0.3 -15.3
v -7.7 12.2 -15.1
v -7.7 12.2 -15.3
v -19.8 0 -15.1
v -19.8 0 -15.2
v -19.8 0.3 -15.2
v -19.8 0.3 -15.3
v -19.8 12.2 -15.1
v -19.8 12.2 -15.3
v -15 0 -15.2
v -15 0 -15.4
v -15 0.3 -15.2
v -15 0.3 -15.3
v -15 4 -15.3
v -15 4 -15.4
v -7.5 0 -15.1
v -7.5 0 -15.4
v -7.5 12.2 -15.1
v -7.5 12.2 -15.4
v -20 0 -15.1
v -20 12.2 -15.1
v -19.8 0 -15.1
v -19.8 12.2 -15.1
v -7.7 0 -15.1
v -7.7 12.2 -15.1
v -7.5 0 -15.1
v -7.5 12.2 -15.1
v -19.8 0 -15.2
v -19.8 0.3 -15.2
v -15 0 -15.2
v -15 0.3 -15.2
v -13 0 -15.2
v -13 0.3 -15.2
v -7.7 0 -15.2
v -7.7 0.3 -15.2
v -19.8 0.3 -15.3
v -19.8 12.2 -15.3
v -15 0.3 -15.3
v -15 4 -15.3
v -13.1 0 -15.3
v -13.1 0.3 -15.3
v -13 0 -15.3
v -13 0.3 -15.3
v -13 4 -15.3
v -7.7 0.3 -15.3
v -7.7 12.2 -15.3
v -20 0 -15.4
v -20 12.2 -15.4
v -15 0 -15.4
v -15 4 -15.4
v -13.1 0 -15.4
v -13.1 0.3 -15.4
v -13 0.3 -15.4
v -13 4 -15.4
v -7.5 0 -15.4
v -7.5 12.2 -15.4
v -20 0 -15.1
v -19.8 0 -15.1
v -7.7 0 -15.1
v -7.5 0 -15.1
v -19.8 0 -15.2
v -15 0 -15.2
v -13 0 -15.2
v -7.7 0 -15.2
v -13.1 0 -15.3
v -13 0 -15.3
v -20 0 -15.4
v -15 0 -15.4
v -13.1 0 -15.4
v -7.5 0 -15.4
v -15 4 -15.3
v -13 4 -15.3
v -15 4 -15.4
v -13 4 -15.4
v -19.8 0.3 -15.2
v -15 0.3 -15.2
v -13 0.3 -15.2
v -7.7 0.3 -15.2
v -19.8 0.3 -15.3
v -15 0.3 -15.3
v -13.1 0.3 -15.3
v -13 0.3 -15.3
v -7.7 0.3 -15.3
v -13.1 0.3 -15.4
v -13 0.3 -15.4
v -20 12.2 -15.1
v -19.8 12.2 -15.1
v -7.7 12.2 -15.1
v -7.5 12.2 -15.1
v -19.8 12.2 -15.3
v -7.7 12.2 -15.3
v -20 12.2 -15.4
v -7.5 12.2 -15.4

# faces
f 3/1/1 2/1/1 1/1/1
f 4/1/1 2/1/1 3/1/1
f 7/1/1 6/1/1 5/1/1
f 8/1/1 6/1/1 7/1/1
f 11/1/1 10/1/1 9/1/1
f 12/1/1 10/1/1 11/1/1
f 14/1/1 13/1/1 12/1/1
f 15/1/1 13/1/1 14/1/1
f 18/1/1 17/1/1 16/1/1
f 20/1/1 18/1/1 16/1/1
f 20/1/1 19/1/1 18/1/1
f 21/1/1 19/1/1 20/1/1
f 22/1/2 23/1/2 24/1/2
f 22/1/2 24/1/2 26/1/2
f 24/1/2 25/1/2 26/1/2
f 26/1/2 25/1/2 27/1/2
f 28/1/2 29/1/2 30/1/2
f 30/1/2 29/1/2 31/1/2
f 31/1/2 29/1/2 32/1/2
f 32/1/2 29/1/2 33/1/2
f 34/1/2 35/1/2 36/1/2
f 36/1/2 35/1/2 37/1/2
f 40/1/3 39/1/3 38/1/3
f 41/1/3 39/1/3 40/1/3
f 44/1/3 43/1/3 42/1/3
f 45/1/3 43/1/3 44/1/3
f 48/1/3 47/1/3 46/1/3
f 49/1/3 47/1/3 48/1/3
f 52/1/3 51/1/3 50/1/3
f 53/1/3 51/1/3 52/1/3
f 56/1/3 55/1/3 54/1/3
f 57/1/3 55/1/3 56/1/3
f 60/1/3 59/1/3 58/1/3
f 61/1/3 59/1/3 60/1/3
f 62/1/3 55/1/3 57/1/3
f 63/1/3 62/1/3 61/1/3
f 64/1/3 55/1/3 62/1/3
f 64/1/3 62/1/3 63/1/3
f 65/1/4 66/1/4 67/1/4
f 67/1/4 66/1/4 68/1/4
f 69/1/4 70/1/4 71/1/4
f 68/1/4 66/1/4 72/1/4
f 69/1/4 71/1/4 73/1/4
f 71/1/4 72/1/4 73/1/4
f 72/1/4 66/1/4 74/1/4
f 73/1/4 72/1/4 74/1/4
f 79/1/5 76/1/5 75/1/5
f 82/1/5 78/1/5 77/1/5
f 84/1/5 82/1/5 81/1/5
f 85/1/5 80/1/5 79/1/5
f 85/1/5 79/1/5 75/1/5
f 86/1/5 80/1/5 85/1/5
f 87/1/5 84/1/5 83/1/5
f 88/1/5 82/1/5 84/1/5
f 88/1/5 84/1/5 87/1/5
f 88/1/5 78/1/5 82/1/5
f 91/1/5 90/1/5 89/1/5
f 92/1/5 90/1/5 91/1/5
f 93/1/6 94/1/6 97/1/6
f 97/1/6 94/1/6 98/1/6
f 95/1/6 96/1/6 100/1/6
f 100/1/6 96/1/6 101/1/6
f 99/1/6 100/1/6 102/1/6
f 102/1/6 100/1/6 103/1/6
f 104/1/6 105/1/6 108/1/6
f 106/1/6 107/1/6 109/1/6
f 104/1/6 108/1/6 110/1/6
f 108/1/6 109/1/6 110/1/6
f 109/1/6 107/1/6 111/1/6
f 110/1/6 109/1/6 111/1/6
