# MagicaVoxel @ Ephtracy

# group
o 

# material
mtllib pc.mtl
usemtl palette

# normals
vn -1 0 0
vn 1 0 0
vn 0 0 1
vn 0 0 -1
vn 0 -1 0
vn 0 1 0

# texcoords
vt 0.00195313 0.5
vt 0.00585938 0.5
vt 0.00976563 0.5

# verts
v -15 0.4 10
v -15 0.4 9.8
v -15 0.4 8.2
v -15 0.4 8
v -15 2 9.8
v -15 2 8.2
v -15 2.1 9.8
v -15 2.1 8.2
v -15 2.3 10
v -15 2.3 8
v -14 2.9 8.7
v -14 2.9 8.5
v -14 3.8 8.7
v -14 3.8 8.5
v -13.8 2.3 9.7
v -13.8 2.3 9.2
v -13.8 2.4 9.7
v -13.8 2.4 9.2
v -13.6 2.3 9
v -13.6 2.3 8.4
v -13.6 2.4 9
v -13.6 2.4 8.4
v -13.1 2.4 8.6
v -13.1 2.4 8.5
v -13.1 2.9 8.6
v -13.1 2.9 8.5
v -11.8 2.3 9.5
v -11.8 2.3 8.2
v -11.8 3.5 9.5
v -11.8 3.5 8.2
v -11.2 0.4 10
v -11.2 0.4 9.8
v -11.2 0.4 8.2
v -11.2 0.4 8
v -11.2 2 10
v -11.2 2 9.9
v -11.2 2 9.8
v -11.2 2 8.2
v -11.2 2 8
v -14.8 0.4 10
v -14.8 0.4 9.8
v -14.8 0.4 8.2
v -14.8 0.4 8
v -14.8 2 10
v -14.8 2 9.9
v -14.8 2 9.8
v -14.8 2 8.2
v -14.8 2 8
v -12.9 2.4 8.6
v -12.9 2.4 8.5
v -12.9 2.9 8.6
v -12.9 2.9 8.5
v -12.4 2.3 9
v -12.4 2.3 8.4
v -12.4 2.4 9
v -12.4 2.4 8.4
v -12.2 2.3 9.7
v -12.2 2.3 9.2
v -12.2 2.4 9.7
v -12.2 2.4 9.2
v -12 2.9 8.7
v -12 2.9 8.5
v -12 3.8 8.7
v -12 3.8 8.5
v -11.2 2.3 9.5
v -11.2 2.3 8.2
v -11.2 3.5 9.5
v -11.2 3.5 8.2
v -11 0.4 10
v -11 0.4 9.8
v -11 0.4 8.2
v -11 0.4 8
v -11 2 9.8
v -11 2 8.2
v -11 2.1 9.8
v -11 2.1 8.2
v -11 2.3 10
v -11 2.3 8
v -15 0.4 10
v -15 2.3 10
v -14.8 0.4 10
v -14.8 2 10
v -14.8 2.1 10
v -11.2 0.4 10
v -11.2 2 10
v -11.2 2.1 10
v -11 0.4 10
v -11 2.3 10
v -13.8 2.3 9.7
v -13.8 2.4 9.7
v -12.2 2.3 9.7
v -12.2 2.4 9.7
v -11.8 2.3 9.5
v -11.8 3.5 9.5
v -11.7 3.2 9.5
v -11.7 3.3 9.5
v -11.3 3.2 9.5
v -11.3 3.3 9.5
v -11.2 2.3 9.5
v -11.2 3.5 9.5
v -13.6 2.3 9
v -13.6 2.4 9
v -12.4 2.3 9
v -12.4 2.4 9
v -14 2.9 8.7
v -14 3.8 8.7
v -13.9 3 8.7
v -13.9 3.7 8.7
v -12.1 3 8.7
v -12.1 3.7 8.7
v -12 2.9 8.7
v -12 3.8 8.7
v -13.1 2.4 8.6
v -13.1 2.9 8.6
v -12.9 2.4 8.6
v -12.9 2.9 8.6
v -15 0.4 8.2
v -15 2 8.2
v -14.9 2 8.2
v -14.8 0.4 8.2
v -14.8 2 8.2
v -11.2 0.4 8.2
v -11.2 2 8.2
v -11.1 2 8.2
v -11 0.4 8.2
v -11 2 8.2
v -15 0.4 9.8
v -15 2 9.8
v -14.9 2 9.8
v -14.8 0.4 9.8
v -14.8 2 9.8
v -11.2 0.4 9.8
v -11.2 2 9.8
v -11.1 2 9.8
v -11 0.4 9.8
v -11 2 9.8
v -13.8 2.3 9.2
v -13.8 2.4 9.2
v -12.2 2.3 9.2
v -12.2 2.4 9.2
v -14 2.9 8.5
v -14 3.8 8.5
v -13.1 2.4 8.5
v -13.1 2.9 8.5
v -12.9 2.4 8.5
v -12.9 2.9 8.5
v -12 2.9 8.5
v -12 3.8 8.5
v -13.6 2.3 8.4
v -13.6 2.4 8.4
v -12.4 2.3 8.4
v -12.4 2.4 8.4
v -11.8 2.3 8.2
v -11.8 3.5 8.2
v -11.2 2.3 8.2
v -11.2 3.5 8.2
v -15 0.4 8
v -15 2.3 8
v -14.8 0.4 8
v -14.8 2 8
v -11.2 0.4 8
v -11.2 2 8
v -11 0.4 8
v -11 2.3 8
v -15 0.4 10
v -14.8 0.4 10
v -11.2 0.4 10
v -11 0.4 10
v -15 0.4 9.8
v -14.8 0.4 9.8
v -11.2 0.4 9.8
v -11 0.4 9.8
v -15 0.4 8.2
v -14.8 0.4 8.2
v -11.2 0.4 8.2
v -11 0.4 8.2
v -15 0.4 8
v -14.8 0.4 8
v -11.2 0.4 8
v -11 0.4 8
v -14.8 2 10
v -11.2 2 10
v -14.8 2 9.9
v -11.2 2 9.9
v -15 2 9.8
v -14.9 2 9.8
v -14.8 2 9.8
v -11.2 2 9.8
v -11.1 2 9.8
v -11 2 9.8
v -15 2 8.2
v -14.9 2 8.2
v -14.8 2 8.2
v -11.2 2 8.2
v -11.1 2 8.2
v -11 2 8.2
v -14.8 2 8
v -11.2 2 8
v -14 2.9 8.7
v -12 2.9 8.7
v -13.1 2.9 8.6
v -12.9 2.9 8.6
v -14 2.9 8.5
v -13.1 2.9 8.5
v -12.9 2.9 8.5
v -12 2.9 8.5
v -15 2.3 10
v -11 2.3 10
v -13.8 2.3 9.7
v -12.2 2.3 9.7
v -11.8 2.3 9.5
v -11.2 2.3 9.5
v -13.8 2.3 9.2
v -12.2 2.3 9.2
v -13.6 2.3 9
v -12.4 2.3 9
v -13.6 2.3 8.4
v -12.4 2.3 8.4
v -11.8 2.3 8.2
v -11.2 2.3 8.2
v -15 2.3 8
v -11 2.3 8
v -13.8 2.4 9.7
v -12.2 2.4 9.7
v -13.8 2.4 9.2
v -12.2 2.4 9.2
v -13.6 2.4 9
v -12.4 2.4 9
v -13.1 2.4 8.6
v -12.9 2.4 8.6
v -13.1 2.4 8.5
v -12.9 2.4 8.5
v -13.6 2.4 8.4
v -12.4 2.4 8.4
v -11.8 3.5 9.5
v -11.2 3.5 9.5
v -11.8 3.5 8.2
v -11.2 3.5 8.2
v -14 3.8 8.7
v -12 3.8 8.7
v -14 3.8 8.5
v -12 3.8 8.5

# faces
f 5/2/1 2/2/1 1/2/1
f 6/2/1 4/2/1 3/2/1
f 7/2/1 5/2/1 1/2/1
f 7/3/1 6/3/1 5/3/1
f 8/2/1 4/2/1 6/2/1
f 8/3/1 6/3/1 7/3/1
f 9/2/1 7/2/1 1/2/1
f 9/2/1 8/2/1 7/2/1
f 10/2/1 4/2/1 8/2/1
f 10/2/1 8/2/1 9/2/1
f 13/1/1 12/1/1 11/1/1
f 14/1/1 12/1/1 13/1/1
f 17/1/1 16/1/1 15/1/1
f 18/1/1 16/1/1 17/1/1
f 21/1/1 20/1/1 19/1/1
f 22/1/1 20/1/1 21/1/1
f 25/1/1 24/1/1 23/1/1
f 26/1/1 24/1/1 25/1/1
f 29/1/1 28/1/1 27/1/1
f 30/1/1 28/1/1 29/1/1
f 35/2/1 32/2/1 31/2/1
f 36/2/1 32/2/1 35/2/1
f 37/2/1 32/2/1 36/2/1
f 38/2/1 34/2/1 33/2/1
f 39/2/1 34/2/1 38/2/1
f 40/2/2 41/2/2 44/2/2
f 44/2/2 41/2/2 45/2/2
f 45/2/2 41/2/2 46/2/2
f 42/2/2 43/2/2 47/2/2
f 47/2/2 43/2/2 48/2/2
f 49/1/2 50/1/2 51/1/2
f 51/1/2 50/1/2 52/1/2
f 53/1/2 54/1/2 55/1/2
f 55/1/2 54/1/2 56/1/2
f 57/1/2 58/1/2 59/1/2
f 59/1/2 58/1/2 60/1/2
f 61/1/2 62/1/2 63/1/2
f 63/1/2 62/1/2 64/1/2
f 65/1/2 66/1/2 67/1/2
f 67/1/2 66/1/2 68/1/2
f 69/2/2 70/2/2 73/2/2
f 71/2/2 72/2/2 74/2/2
f 69/2/2 73/2/2 75/2/2
f 73/3/2 74/3/2 75/3/2
f 74/2/2 72/2/2 76/2/2
f 75/3/2 74/3/2 76/3/2
f 69/2/2 75/2/2 77/2/2
f 75/2/2 76/2/2 77/2/2
f 76/2/2 72/2/2 78/2/2
f 77/2/2 76/2/2 78/2/2
f 81/2/3 80/2/3 79/2/3
f 82/2/3 80/2/3 81/2/3
f 83/2/3 80/2/3 82/2/3
f 85/3/3 83/3/3 82/3/3
f 86/2/3 80/2/3 83/2/3
f 86/3/3 83/3/3 85/3/3
f 87/2/3 85/2/3 84/2/3
f 87/2/3 86/2/3 85/2/3
f 88/2/3 80/2/3 86/2/3
f 88/2/3 86/2/3 87/2/3
f 91/1/3 90/1/3 89/1/3
f 92/1/3 90/1/3 91/1/3
f 95/1/3 94/1/3 93/1/3
f 96/1/3 94/1/3 95/1/3
f 97/1/3 95/1/3 93/1/3
f 97/3/3 96/3/3 95/3/3
f 98/1/3 94/1/3 96/1/3
f 98/3/3 96/3/3 97/3/3
f 99/1/3 97/1/3 93/1/3
f 99/1/3 98/1/3 97/1/3
f 100/1/3 94/1/3 98/1/3
f 100/1/3 98/1/3 99/1/3
f 103/1/3 102/1/3 101/1/3
f 104/1/3 102/1/3 103/1/3
f 107/1/3 106/1/3 105/1/3
f 108/1/3 106/1/3 107/1/3
f 109/1/3 107/1/3 105/1/3
f 109/3/3 108/3/3 107/3/3
f 110/1/3 106/1/3 108/1/3
f 110/3/3 108/3/3 109/3/3
f 111/1/3 109/1/3 105/1/3
f 111/1/3 110/1/3 109/1/3
f 112/1/3 106/1/3 110/1/3
f 112/1/3 110/1/3 111/1/3
f 115/1/3 114/1/3 113/1/3
f 116/1/3 114/1/3 115/1/3
f 119/2/3 118/2/3 117/2/3
f 120/2/3 119/2/3 117/2/3
f 121/2/3 119/2/3 120/2/3
f 124/2/3 123/2/3 122/2/3
f 125/2/3 124/2/3 122/2/3
f 126/2/3 124/2/3 125/2/3
f 127/2/4 128/2/4 129/2/4
f 127/2/4 129/2/4 130/2/4
f 130/2/4 129/2/4 131/2/4
f 132/2/4 133/2/4 134/2/4
f 132/2/4 134/2/4 135/2/4
f 135/2/4 134/2/4 136/2/4
f 137/1/4 138/1/4 139/1/4
f 139/1/4 138/1/4 140/1/4
f 141/1/4 142/1/4 144/1/4
f 143/1/4 144/1/4 145/1/4
f 144/1/4 142/1/4 146/1/4
f 145/1/4 144/1/4 146/1/4
f 146/1/4 142/1/4 147/1/4
f 147/1/4 142/1/4 148/1/4
f 149/1/4 150/1/4 151/1/4
f 151/1/4 150/1/4 152/1/4
f 153/1/4 154/1/4 155/1/4
f 155/1/4 154/1/4 156/1/4
f 157/2/4 158/2/4 159/2/4
f 159/2/4 158/2/4 160/2/4
f 160/2/4 158/2/4 162/2/4
f 161/2/4 162/2/4 163/2/4
f 162/2/4 158/2/4 164/2/4
f 163/2/4 162/2/4 164/2/4
f 169/2/5 166/2/5 165/2/5
f 170/2/5 166/2/5 169/2/5
f 171/2/5 168/2/5 167/2/5
f 172/2/5 168/2/5 171/2/5
f 177/2/5 174/2/5 173/2/5
f 178/2/5 174/2/5 177/2/5
f 179/2/5 176/2/5 175/2/5
f 180/2/5 176/2/5 179/2/5
f 183/3/5 182/3/5 181/3/5
f 184/3/5 182/3/5 183/3/5
f 187/2/5 184/2/5 183/2/5
f 188/2/5 184/2/5 187/2/5
f 191/3/5 186/3/5 185/3/5
f 192/2/5 188/2/5 187/2/5
f 192/3/5 186/3/5 191/3/5
f 192/2/5 187/2/5 186/2/5
f 192/2/5 189/2/5 188/2/5
f 193/2/5 189/2/5 192/2/5
f 194/2/5 189/2/5 193/2/5
f 195/3/5 190/3/5 189/3/5
f 195/2/5 189/2/5 194/2/5
f 196/3/5 190/3/5 195/3/5
f 197/2/5 194/2/5 193/2/5
f 198/2/5 194/2/5 197/2/5
f 201/1/5 200/1/5 199/1/5
f 202/1/5 200/1/5 201/1/5
f 203/1/5 201/1/5 199/1/5
f 204/1/5 201/1/5 203/1/5
f 205/1/5 200/1/5 202/1/5
f 206/1/5 200/1/5 205/1/5
f 207/2/6 208/2/6 209/2/6
f 209/2/6 208/2/6 210/2/6
f 210/2/6 208/2/6 211/2/6
f 211/2/6 208/2/6 212/2/6
f 207/2/6 209/2/6 213/2/6
f 210/2/6 211/2/6 214/2/6
f 213/2/6 214/2/6 215/2/6
f 215/2/6 214/2/6 216/2/6
f 213/2/6 215/2/6 217/2/6
f 216/2/6 214/2/6 218/2/6
f 214/2/6 211/2/6 219/2/6
f 217/2/6 218/2/6 219/2/6
f 218/2/6 214/2/6 219/2/6
f 212/2/6 208/2/6 220/2/6
f 217/2/6 219/2/6 221/2/6
f 219/2/6 220/2/6 221/2/6
f 207/2/6 213/2/6 221/2/6
f 213/2/6 217/2/6 221/2/6
f 220/2/6 208/2/6 222/2/6
f 221/2/6 220/2/6 222/2/6
f 223/1/6 224/1/6 225/1/6
f 225/1/6 224/1/6 226/1/6
f 227/1/6 228/1/6 229/1/6
f 229/1/6 228/1/6 230/1/6
f 227/1/6 229/1/6 231/1/6
f 230/1/6 228/1/6 232/1/6
f 227/1/6 231/1/6 233/1/6
f 231/1/6 232/1/6 233/1/6
f 232/1/6 228/1/6 234/1/6
f 233/1/6 232/1/6 234/1/6
f 235/1/6 236/1/6 237/1/6
f 237/1/6 236/1/6 238/1/6
f 239/1/6 240/1/6 241/1/6
f 241/1/6 240/1/6 242/1/6
